<?xml version="1.0" standalone="no"?>
<!DOCTYPE svg PUBLIC "-//W3C//DTD SVG 20010904//EN"
 "http://www.w3.org/TR/2001/REC-SVG-20010904/DTD/svg10.dtd">
<svg version="1.0" xmlns="http://www.w3.org/2000/svg"
 width="512.000000pt" height="512.000000pt" viewBox="0 0 512.000000 512.000000"
 preserveAspectRatio="xMidYMid meet">
<metadata>
Created by potrace 1.16, written by Peter Selinger 2001-2019
</metadata>
<g transform="translate(0.000000,512.000000) scale(0.100000,-0.100000)"
fill="#000000" stroke="none">
<path d="M58 3157 c-5 -10 -8 -121 -8 -246 0 -179 3 -239 16 -282 33 -112 97
-195 195 -252 129 -75 363 -76 496 -2 l42 23 22 -24 c64 -68 302 -73 380 -7
35 30 59 72 59 105 0 20 8 26 43 35 23 7 50 15 60 18 13 6 17 2 17 -19 0 -74
59 -149 134 -171 88 -26 301 -16 449 22 58 15 71 15 90 4 59 -37 190 -51 298
-31 46 8 60 17 95 55 22 25 47 45 56 45 9 0 25 -15 36 -33 32 -55 81 -72 197
-71 187 2 250 2 327 1 l77 -2 -23 -30 c-71 -94 -69 -89 -64 -159 3 -54 9 -72
34 -103 71 -87 147 -112 242 -79 35 13 47 13 88 0 62 -18 114 -18 186 2 53 15
60 15 98 0 50 -20 134 -21 189 -1 31 10 49 12 68 4 15 -6 139 -11 276 -13 245
-3 250 -3 296 21 78 39 85 58 89 210 3 115 1 139 -17 189 -12 31 -19 59 -16
62 3 3 24 -12 48 -34 84 -80 181 -96 288 -48 46 21 65 37 89 74 17 27 35 61
39 77 17 58 -21 214 -54 227 -7 2 -3 -13 10 -37 33 -60 39 -109 21 -170 -30
-103 -113 -167 -217 -167 -73 0 -147 37 -183 90 l-26 40 -28 -17 c-15 -9 -29
-18 -31 -19 -2 -2 7 -18 20 -36 22 -31 24 -44 27 -183 4 -175 -4 -202 -72
-234 -37 -17 -65 -19 -281 -19 -176 0 -248 3 -272 13 -26 11 -38 11 -75 -2
-58 -20 -122 -20 -186 1 -49 16 -56 17 -99 2 -56 -19 -144 -20 -196 -2 -33 12
-43 12 -87 -5 -57 -22 -96 -18 -157 17 -108 62 -122 211 -27 300 24 23 44 44
44 46 0 3 -52 7 -115 10 -63 2 -120 9 -126 15 -7 7 -23 6 -52 -4 -30 -11 -74
-14 -152 -11 -123 3 -161 19 -185 78 -11 26 -17 30 -49 29 -31 0 -41 -7 -66
-42 -42 -57 -82 -69 -216 -65 -96 3 -110 6 -145 30 l-39 27 -55 -19 c-76 -25
-191 -40 -318 -40 -129 0 -168 10 -209 52 -38 39 -53 76 -53 127 l0 38 -52
-18 c-29 -10 -65 -18 -80 -19 -25 0 -28 -4 -28 -34 0 -42 -34 -94 -80 -120
-25 -15 -57 -21 -125 -24 -108 -5 -164 8 -204 48 l-29 30 -44 -24 c-79 -44
-150 -58 -272 -54 -99 3 -118 7 -176 34 -78 37 -128 78 -170 142 -57 86 -63
123 -69 397 -3 138 -9 242 -13 232z"/>
<path d="M204 3136 c-3 -8 -4 -120 -2 -248 2 -197 6 -238 20 -264 30 -55 69
-94 122 -122 47 -25 60 -27 171 -27 111 0 124 2 170 27 63 33 98 70 127 133
22 48 23 61 23 280 l0 230 -105 0 -105 0 -5 -210 c-6 -256 -13 -275 -108 -275
-33 0 -45 6 -66 31 l-26 31 0 202 c0 144 -3 205 -12 214 -18 18 -197 16 -204
-2z"/>
<path d="M915 3141 c-6 -6 -8 -135 -5 -333 l5 -323 100 0 100 0 3 83 3 82 73
0 c100 0 170 24 223 76 48 48 63 92 63 182 0 113 -56 188 -168 222 -53 16 -93
20 -226 20 -89 0 -166 -4 -171 -9z m330 -196 c32 -31 32 -69 0 -100 -19 -20
-34 -25 -75 -25 l-50 0 0 75 0 75 50 0 c41 0 56 -5 75 -25z"/>
<path d="M1537 3142 c-8 -12 -10 -639 -2 -652 4 -6 69 -10 158 -10 204 0 294
24 381 101 81 71 115 211 81 337 -16 57 -27 75 -74 123 -85 84 -139 100 -362
106 -109 3 -179 1 -182 -5z m360 -208 c55 -41 67 -136 26 -205 -21 -36 -73
-59 -133 -59 l-50 0 0 143 c0 79 3 147 8 151 15 16 115 -4 149 -30z"/>
<path d="M2378 3113 c-191 -471 -247 -616 -242 -624 3 -5 50 -9 105 -9 l100 0
21 48 c11 26 26 50 32 54 13 9 117 10 178 2 42 -6 45 -8 61 -55 l18 -49 104 0
c57 0 107 4 110 10 3 5 -54 156 -127 335 l-132 325 -107 0 -106 0 -15 -37z"/>
<path d="M2787 3143 c-12 -11 -8 -161 4 -169 6 -3 47 -7 92 -8 l82 -1 3 -243
2 -243 103 3 102 3 5 240 5 240 82 0 c46 0 87 5 93 11 7 7 10 42 8 90 l-3 79
-286 3 c-157 1 -288 -1 -292 -5z"/>
<path d="M3425 3139 c-5 -8 -9 -489 -5 -652 0 -4 116 -6 258 -5 l257 3 3 73
c2 46 -2 79 -9 88 -9 11 -45 14 -160 14 l-149 0 0 35 0 34 133 3 132 3 0 80 0
80 -133 3 -133 3 3 32 3 32 65 0 c36 0 105 1 153 3 l88 2 -3 88 -3 87 -247 3
c-171 2 -249 -1 -253 -9z"/>
<path d="M3995 3138 c-3 -7 -4 -157 -3 -333 l3 -320 154 -3 c113 -2 169 2 215
13 120 30 221 115 248 208 6 23 12 79 12 124 0 74 -4 89 -35 149 -38 76 -94
122 -182 150 -71 23 -404 33 -412 12z m348 -196 c41 -23 61 -65 61 -127 0 -94
-52 -145 -148 -145 l-56 0 0 143 c0 79 3 147 8 151 12 13 101 -2 135 -22z"/>
<path d="M4758 2665 c-31 -17 -58 -62 -58 -95 0 -29 27 -77 49 -90 11 -5 38
-10 61 -10 90 0 134 102 73 170 -34 37 -85 47 -125 25z"/>
<path d="M3455 2379 c-125 -40 -141 -212 -24 -271 57 -30 152 -18 186 24 10
12 7 20 -16 42 -28 27 -31 27 -66 15 -35 -13 -38 -12 -56 10 -22 27 -24 50 -5
76 11 15 21 17 58 12 39 -5 48 -3 67 17 28 30 27 43 -8 60 -39 21 -99 27 -136
15z"/>
<path d="M3755 2381 c-77 -19 -115 -67 -115 -144 0 -93 60 -147 163 -147 121
0 194 117 136 220 -11 20 -33 44 -47 52 -34 20 -98 29 -137 19z"/>
<path d="M4145 2370 c-47 -24 -45 -24 -45 -5 0 11 -12 15 -50 15 l-50 0 -1
-57 c0 -32 -3 -87 -5 -121 -3 -35 -3 -75 0 -88 6 -23 11 -25 59 -22 l52 3 3
92 c2 83 5 93 23 98 34 11 44 -10 44 -95 0 -45 5 -84 11 -90 6 -6 31 -10 55
-8 l44 3 3 92 c3 94 11 110 47 97 12 -5 15 -25 15 -88 0 -44 4 -87 9 -94 5 -9
25 -12 57 -10 l49 3 3 114 c2 90 -1 118 -13 138 -32 48 -114 54 -157 11 -15
-15 -23 -18 -26 -10 -4 14 -54 42 -74 42 -8 0 -31 -9 -53 -20z"/>
</g>
</svg>
